<?xml version="1.0" encoding="UTF-8" standalone="no"?>
<!-- Created with Inkscape (http://www.inkscape.org/) -->

<svg
   xmlns:dc="http://purl.org/dc/elements/1.1/"
   xmlns:cc="http://creativecommons.org/ns#"
   xmlns:rdf="http://www.w3.org/1999/02/22-rdf-syntax-ns#"
   xmlns:svg="http://www.w3.org/2000/svg"
   xmlns="http://www.w3.org/2000/svg"
   xmlns:sodipodi="http://sodipodi.sourceforge.net/DTD/sodipodi-0.dtd"
   xmlns:inkscape="http://www.inkscape.org/namespaces/inkscape"
   inkscape:version="0.92.1 r15371"
   version="1.1"
   id="svg2"
   viewBox="0 0 720.00001 540.00001"
   height="6in"
   width="8in"
   sodipodi:docname="integration_setup.svg"
   inkscape:export-filename="/home/e2richards/personal_essays/figures/integration_setup.png"
   inkscape:export-xdpi="90"
   inkscape:export-ydpi="90">
  <sodipodi:namedview
     inkscape:window-maximized="1"
     inkscape:window-y="597"
     inkscape:window-x="0"
     inkscape:window-height="1016"
     inkscape:window-width="1920"
     units="in"
     showgrid="false"
     inkscape:current-layer="layer1"
     inkscape:document-units="px"
     inkscape:cy="288"
     inkscape:cx="384"
     inkscape:zoom="1.3559028"
     inkscape:pageshadow="2"
     inkscape:pageopacity="0.0"
     borderopacity="1.0"
     bordercolor="#666666"
     pagecolor="#ffffff"
     id="base"
     showguides="true"
     inkscape:guide-bbox="true"
     inkscape:snap-object-midpoints="true"
     inkscape:snap-to-guides="true"
     inkscape:snap-others="true"
     inkscape:snap-center="false"
     inkscape:snap-bbox="true"
     inkscape:bbox-nodes="false"
     inkscape:snap-bbox-edge-midpoints="false"
     inkscape:snap-text-baseline="true">
    <inkscape:grid
       type="xygrid"
       id="grid3408" />
    <sodipodi:guide
       position="188.12903,426.19356"
       orientation="1,0"
       id="guide4868"
       inkscape:label=""
       inkscape:color="rgb(0,0,255)"
       inkscape:locked="false" />
    <sodipodi:guide
       position="575.54141,221.27389"
       orientation="1,0"
       id="guide5956"
       inkscape:locked="false" />
    <sodipodi:guide
       position="510.46053,130.44717"
       orientation="0,1"
       id="guide5958"
       inkscape:locked="false" />
  </sodipodi:namedview>
  <defs
     id="defs4">
    <marker
       inkscape:stockid="Arrow1Lend"
       orient="auto"
       refY="0.0"
       refX="0.0"
       id="marker4571"
       style="overflow:visible;"
       inkscape:isstock="true">
      <path
         id="path4318"
         d="M 0.0,0.0 L 5.0,-5.0 L -12.5,0.0 L 5.0,5.0 L 0.0,0.0 z "
         style="fill-rule:evenodd;stroke:#000000;stroke-width:1pt;stroke-opacity:1;fill:#000000;fill-opacity:1"
         transform="scale(0.8) rotate(180) translate(12.5,0)" />
    </marker>
    <inkscape:path-effect
       effect="spiro"
       id="path-effect4309"
       is_visible="true" />
    <marker
       inkscape:stockid="Arrow1Lend"
       orient="auto"
       refY="0.0"
       refX="0.0"
       id="marker4484"
       style="overflow:visible;"
       inkscape:isstock="true">
      <path
         id="path4231"
         d="M 0.0,0.0 L 5.0,-5.0 L -12.5,0.0 L 5.0,5.0 L 0.0,0.0 z "
         style="fill-rule:evenodd;stroke:#000000;stroke-width:1pt;stroke-opacity:1;fill:#000000;fill-opacity:1"
         transform="scale(0.8) rotate(180) translate(12.5,0)" />
    </marker>
    <inkscape:path-effect
       effect="spiro"
       id="path-effect4222"
       is_visible="true" />
    <inkscape:path-effect
       effect="spiro"
       id="path-effect4608"
       is_visible="true" />
    <inkscape:path-effect
       effect="spiro"
       id="path-effect4604"
       is_visible="true" />
    <marker
       inkscape:stockid="Arrow1Lstart"
       orient="auto"
       refY="0.0"
       refX="0.0"
       id="Arrow1Lstart"
       style="overflow:visible"
       inkscape:isstock="true">
      <path
         id="path4339"
         d="M 0.0,0.0 L 5.0,-5.0 L -12.5,0.0 L 5.0,5.0 L 0.0,0.0 z "
         style="fill-rule:evenodd;stroke:#000000;stroke-width:1pt;stroke-opacity:1;fill:#000000;fill-opacity:1"
         transform="scale(0.8) translate(12.5,0)" />
    </marker>
    <marker
       inkscape:stockid="Arrow1Lend"
       orient="auto"
       refY="0.0"
       refX="0.0"
       id="marker4595"
       style="overflow:visible;"
       inkscape:isstock="true">
      <path
         id="path4342"
         d="M 0.0,0.0 L 5.0,-5.0 L -12.5,0.0 L 5.0,5.0 L 0.0,0.0 z "
         style="fill-rule:evenodd;stroke:#000000;stroke-width:1pt;stroke-opacity:1;fill:#000000;fill-opacity:1"
         transform="scale(0.8) rotate(180) translate(12.5,0)" />
    </marker>
    <marker
       inkscape:isstock="true"
       style="overflow:visible;"
       id="marker5073"
       refX="0.0"
       refY="0.0"
       orient="auto"
       inkscape:stockid="Arrow1Lend">
      <path
         transform="scale(0.8) rotate(180) translate(12.5,0)"
         style="fill-rule:evenodd;stroke:#000000;stroke-width:1pt;stroke-opacity:1;fill:#000000;fill-opacity:1"
         d="M 0.0,0.0 L 5.0,-5.0 L -12.5,0.0 L 5.0,5.0 L 0.0,0.0 z "
         id="path5075" />
    </marker>
    <marker
       inkscape:isstock="true"
       style="overflow:visible;"
       id="marker5027"
       refX="0.0"
       refY="0.0"
       orient="auto"
       inkscape:stockid="Arrow1Lend">
      <path
         transform="scale(0.8) rotate(180) translate(12.5,0)"
         style="fill-rule:evenodd;stroke:#000000;stroke-width:1pt;stroke-opacity:1;fill:#000000;fill-opacity:1"
         d="M 0.0,0.0 L 5.0,-5.0 L -12.5,0.0 L 5.0,5.0 L 0.0,0.0 z "
         id="path5029" />
    </marker>
    <marker
       inkscape:isstock="true"
       style="overflow:visible"
       id="marker4981"
       refX="0.0"
       refY="0.0"
       orient="auto"
       inkscape:stockid="Arrow2Lstart">
      <path
         transform="scale(1.1) translate(1,0)"
         d="M 8.7185878,4.0337352 L -2.2072895,0.016013256 L 8.7185884,-4.0017078 C 6.9730900,-1.6296469 6.9831476,1.6157441 8.7185878,4.0337352 z "
         style="fill-rule:evenodd;stroke-width:0.625;stroke-linejoin:round;stroke:#000000;stroke-opacity:1;fill:#000000;fill-opacity:1"
         id="path4983" />
    </marker>
    <marker
       inkscape:stockid="Arrow1Lend"
       orient="auto"
       refY="0.0"
       refX="0.0"
       id="Arrow1Lend"
       style="overflow:visible;"
       inkscape:isstock="true"
       inkscape:collect="always">
      <path
         id="path4219"
         d="M 0.0,0.0 L 5.0,-5.0 L -12.5,0.0 L 5.0,5.0 L 0.0,0.0 z "
         style="fill-rule:evenodd;stroke:#000000;stroke-width:1pt;stroke-opacity:1;fill:#000000;fill-opacity:1"
         transform="scale(0.8) rotate(180) translate(12.5,0)" />
    </marker>
    <marker
       inkscape:stockid="Arrow2Lstart"
       orient="auto"
       refY="0.0"
       refX="0.0"
       id="Arrow2Lstart"
       style="overflow:visible"
       inkscape:isstock="true">
      <path
         id="path4234"
         style="fill-rule:evenodd;stroke-width:0.625;stroke-linejoin:round;stroke:#000000;stroke-opacity:1;fill:#000000;fill-opacity:1"
         d="M 8.7185878,4.0337352 L -2.2072895,0.016013256 L 8.7185884,-4.0017078 C 6.9730900,-1.6296469 6.9831476,1.6157441 8.7185878,4.0337352 z "
         transform="scale(1.1) translate(1,0)" />
    </marker>
  </defs>
  <metadata
     id="metadata7">
    <rdf:RDF>
      <cc:Work
         rdf:about="">
        <dc:format>image/svg+xml</dc:format>
        <dc:type
           rdf:resource="http://purl.org/dc/dcmitype/StillImage" />
        <dc:title />
      </cc:Work>
    </rdf:RDF>
  </metadata>
  <g
     transform="translate(0,-512.36215)"
     id="layer1"
     inkscape:groupmode="layer"
     inkscape:label="Layer 1">
    <circle
       style="fill:#357428;fill-opacity:0.89873418;stroke:none;stroke-width:3;stroke-miterlimit:4;stroke-dasharray:none;stroke-opacity:1"
       id="path4866"
       cx="188.12903"
       cy="784.08496"
       r="8.1825438"
       inkscape:transform-center-x="59.872063"
       inkscape:transform-center-y="-2.3027687" />
    <circle
       style="fill:none;fill-opacity:1;stroke:#009100;stroke-width:1.5;stroke-miterlimit:4;stroke-dasharray:none;stroke-opacity:1"
       id="path4928"
       cx="188.12903"
       cy="784.08496"
       r="22.832596" />
    <ellipse
       style="fill:none;fill-opacity:1;stroke:#009100;stroke-width:1.66232431;stroke-miterlimit:4;stroke-dasharray:none;stroke-opacity:1"
       id="path4930"
       cx="188.12903"
       cy="784.08496"
       rx="34.81881"
       ry="34.243114" />
    <ellipse
       style="fill:#000000;fill-opacity:0.32484071;stroke:#000000;stroke-width:2;stroke-miterlimit:4;stroke-dasharray:none;stroke-opacity:1"
       id="path5927"
       cx="575.54138"
       cy="921.91498"
       rx="13.555298"
       ry="13.555293" />
    <flowRoot
       xml:space="preserve"
       id="flowRoot5990"
       style="font-style:normal;font-weight:normal;line-height:0.01%;font-family:sans-serif;letter-spacing:0px;word-spacing:0px;fill:#000000;fill-opacity:1;stroke:none;stroke-width:1px;stroke-linecap:butt;stroke-linejoin:miter;stroke-opacity:1"
       transform="translate(0,512.36215)"><flowRegion
         id="flowRegion5992"><rect
           id="rect5994"
           width="199.74193"
           height="41.80645"
           x="272.90323"
           y="495.87097" /></flowRegion><flowPara
         id="flowPara5996"
         style="font-size:40px;line-height:1.25">Sour</flowPara></flowRoot>    <path
       id="path3402"
       title="sin(x)"
       d="m -0.1081876,637.73278 c 1.4565332,-1.44568 2.9130665,-2.89133 4.3695997,-4.32029 1.4565333,-1.42895 2.9130665,-2.84109 4.3695998,-4.22024 1.4565331,-1.37915 2.9130661,-2.72508 4.3696001,-4.02248 1.456533,-1.2974 2.913066,-2.54596 4.369599,-3.73157 1.456534,-1.1856 2.913067,-2.30787 4.3696,-3.35423 1.456533,-1.04637 2.913067,-2.01636 4.3696,-2.89925 1.456533,-0.88289 2.913066,-1.67814 4.369599,-2.37711 1.456534,-0.69896 2.913067,-1.30106 4.3696,-1.79993 1.456533,-0.49886 2.913067,-0.89386 4.3696,-1.18107 1.456533,-0.2872 2.913066,-0.46596 4.3696,-0.53487 1.456533,-0.0688 2.913066,-0.0272 4.369599,0.12374 1.456534,0.151 2.913067,0.41204 4.3696,0.77946 1.456533,0.36741 2.913067,0.84182 4.3696,1.41713 1.456533,0.57531 2.913066,1.25211 4.3696,2.022 1.456533,0.76989 2.913066,1.6334 4.369599,2.58004 1.456534,0.94663 2.913067,1.97687 4.3696,3.07833 1.456533,1.10147 2.913067,2.27457 4.3696,3.50535 1.456533,1.23079 2.913066,2.51959 4.3696,3.85119 1.456533,1.33161 2.913066,2.70626 4.369599,4.10785 1.456533,1.4016 2.913067,2.83027 4.3696,4.2694 1.456533,1.43912 2.913066,2.88873 4.3696,4.33206 1.456533,1.44332 2.913066,2.88031 4.369599,4.29442 1.456534,1.41412 2.913067,2.80519 4.369604,4.15734 1.45653,1.35215 2.91306,2.66511 4.3696,3.92398 1.45653,1.25888 2.91306,2.46332 4.3696,3.59977 1.45653,1.13645 2.91306,2.20448 4.3696,3.19219 1.45653,0.98771 2.91306,1.8946 4.3696,2.71069 1.45653,0.8161 2.91306,1.54084 4.36959,2.16643 1.45654,0.62558 2.91307,1.1514 4.3696,1.57199 1.45654,0.42059 2.91307,0.7353 4.3696,0.94115 1.45654,0.20585 2.91307,0.30218 4.3696,0.28853 1.45654,-0.0136 2.91307,-0.13795 4.3696,-0.37079 1.45654,-0.23283 2.91307,-0.57486 4.3696,-1.0215 1.45654,-0.44664 2.91307,-0.99849 4.3696,-1.64858 1.45654,-0.65009 2.91307,-1.39899 4.3696,-2.23747 1.45654,-0.83849 2.91307,-1.76709 4.3696,-2.77456 1.45654,-1.00746 2.91307,-2.09426 4.3696,-3.24738 1.45654,-1.15313 2.91307,-2.37295 4.3696,-3.64503 1.45654,-1.27208 2.91307,-2.59669 4.3696,-3.95825 1.45654,-1.36158 2.91307,-2.7603 4.3696,-4.17983 1.45653,-1.41954 2.91307,-2.85998 4.3696,-4.30461 1.45653,-1.44463 2.91307,-2.89344 4.3696,-4.3297 1.45653,-1.43627 2.91307,-2.8599 4.3696,-4.25456 1.45653,-1.39464 2.91307,-2.76013 4.3696,-4.08087 1.45653,-1.32073 2.91307,-2.59644 4.3696,-3.81269 1.45653,-1.21624 2.91307,-2.37264 4.3696,-3.45622 1.45653,-1.08358 2.91307,-2.09389 4.3696,-3.01973 1.45653,-0.92583 2.91307,-1.76666 4.3696,-2.5133 1.45653,-0.74664 2.91307,-1.39852 4.3696,-1.94867 1.45653,-0.55016 2.91307,-0.99799 4.3696,-1.33892 1.45653,-0.34095 2.91307,-0.57435 4.3696,-0.69817 1.45653,-0.12383 2.91307,-0.13741 4.3696,-0.0412 1.45653,0.0962 2.91306,0.30271 4.3696,0.61662 1.45653,0.31393 2.91306,0.73583 4.3696,1.26023 1.45653,0.52441 2.91306,1.1519 4.3696,1.87464 1.45653,0.72275 2.91306,1.5413 4.3696,2.44565 1.45653,0.90436 2.91306,1.89501 4.3696,2.96002 1.45653,1.06502 2.91306,2.20483 4.3696,3.40585 1.45653,1.20103 2.91306,2.4636 4.3696,3.77282 1.45653,1.30921 2.91306,2.66532 4.3696,4.0524 1.45653,1.3871 2.91306,2.80533 4.3696,4.23817 1.45653,1.43285 2.91306,2.88036 4.3696,4.32578 1.45653,1.44542 2.91306,2.88871 4.3696,4.31323 1.45653,1.42453 2.91306,2.83016 4.3696,4.2008 1.45653,1.37064 2.91306,2.70606 4.36959,3.99109 1.45654,1.28502 2.91307,2.51931 4.3696,3.68897 1.45654,1.16964 2.91307,2.27422 4.3696,3.3014 1.45654,1.02719 2.91307,1.97649 4.3696,2.83742 1.45654,0.86093 2.91307,1.63296 4.3696,2.30771 1.45654,0.67475 2.91307,1.25163 4.3696,1.72456 1.45654,0.47294 2.91307,0.84131 4.3696,1.1015 1.45654,0.26017 2.91307,0.41151 4.3696,0.4529 1.45654,0.0414 2.91307,-0.0278 4.3696,-0.20617 1.45654,-0.17834 2.91307,-0.46649 4.3696,-0.86046 1.45654,-0.39396 2.91307,-0.89437 4.3696,-1.49483 1.45654,-0.60045 2.91307,-1.30155 4.3696,-2.09459 1.45654,-0.79305 2.91307,-1.67858 4.3696,-2.64585 1.45653,-0.96727 2.91307,-2.01673 4.3696,-3.13583 1.45653,-1.11909 2.91307,-2.3082 4.3696,-3.5532 1.45653,-1.245 2.91307,-2.54621 4.3696,-3.88829 1.45653,-1.34209 2.91307,-2.72526 4.3696,-4.13335 1.45653,-1.40808 2.91307,-2.8412 4.3696,-4.28268 1.45653,-1.44148 2.91307,-2.89135 4.3696,-4.33284 1.45653,-1.44151 2.91307,-2.87455 4.3696,-4.2827 1.45653,-1.40813 2.91307,-2.79117 4.3696,-4.13334 1.45653,-1.34216 2.91307,-2.64318 4.3696,-3.88829 1.45653,-1.24511 2.91307,-2.43397 4.3696,-3.5532 1.45653,-1.11923 2.91307,-2.1684 4.3696,-3.13583 1.45653,-0.96743 2.91306,-1.85262 4.3696,-2.64585 1.45653,-0.79322 2.91306,-1.49393 4.3696,-2.09459 1.45653,-0.60066 2.91306,-1.10065 4.3696,-1.49484 1.45653,-0.39417 2.91306,-0.68189 4.3696,-0.86046 1.45653,-0.17857 2.91306,-0.24733 4.3696,-0.20616 1.45653,0.0412 2.91306,0.19294 4.3696,0.45291 1.45653,0.25995 2.91306,0.62876 4.3696,1.10149 1.45653,0.47273 2.91306,1.05 4.3696,1.72456 1.45653,0.67456 2.91306,1.44696 4.3696,2.30771 1.45653,0.86076 2.91306,1.81039 4.3696,2.83741 1.45653,1.02703 2.91306,2.1319 4.3696,3.30142 1.45653,1.16952 2.91306,2.40404 4.3696,3.68896 1.45653,1.28492 2.91306,2.62051 4.36959,3.99109 1.45654,1.37057 2.91307,2.77631 4.3696,4.2008 1.45654,1.42449 2.91307,2.86781 4.3696,4.31323 1.45654,1.44541 2.91307,2.8929 4.3696,4.32578 1.45654,1.43288 2.91307,2.85102 4.3696,4.23817 1.45654,1.38715 2.91307,2.7431 4.3696,4.0524 1.45654,1.30932 2.91307,2.57168 4.3696,3.77282 1.45654,1.20115 2.91307,2.34068 4.3696,3.40585 1.45654,1.06516 2.91307,2.05549 4.3696,2.96002 1.45654,0.90452 2.91307,1.72271 4.3696,2.44564 1.45654,0.72294 2.91307,1.35004 4.3696,1.87464 1.45654,0.52461 2.91307,0.9461 4.3696,1.26024 1.45654,0.31412 2.91307,0.52024 4.3696,0.61662 1.45653,0.0964 2.91307,0.0824 4.3696,-0.0412 1.45653,-0.12361 2.91307,-0.35745 4.3696,-0.69817 1.45653,-0.34073 2.91307,-0.78897 4.3696,-1.33892 1.45653,-0.54997 2.91307,-1.20223 4.3696,-1.94868 1.45653,-0.74645 2.91307,-1.58764 4.3696,-2.5133 1.45653,-0.92567 2.91307,-1.93629 4.3696,-3.01973 1.45653,-1.08343 2.91307,-2.2401 4.3696,-3.45622 1.45653,-1.21613 2.91307,-2.49205 4.3696,-3.8127 1.45653,-1.32065 2.91307,-2.68627 4.3696,-4.08086 1.45653,-1.39459 2.91307,-2.81831 4.3696,-4.25455 1.45653,-1.43624 2.91307,-2.88508 4.3696,-4.32971 1.45653,-1.44464 2.91307,-2.88503 4.3696,-4.30461 1.45653,-1.41958 2.91306,-2.81818 4.3696,-4.17982 1.45653,-1.36165 2.91306,-2.68608 4.3696,-3.95826 1.45653,-1.27218 2.91306,-2.49177 4.3696,-3.64503 1.45653,-1.15325 2.91306,-2.23975 4.3696,-3.24738 1.45653,-1.00763 2.91306,-1.9359 4.3696,-2.77456 1.45653,-0.83866 2.91306,-1.58719 4.3696,-2.23747 1.45653,-0.65028 2.91306,-1.20173 4.3696,-1.64858 1.45653,-0.44684 2.91306,-0.78845 4.3696,-1.0215 1.45653,-0.23306 2.91306,-0.35692 4.3696,-0.37079 1.45653,-0.0139 2.91306,0.0829 4.3696,0.28853 1.45653,0.20563 2.91306,0.52078 4.3696,0.94115 1.45653,0.42038 2.91306,0.94661 4.3696,1.572 1.45653,0.62538 2.91306,1.3505 4.36959,2.16642 1.45654,0.81592 2.91307,1.72315 4.3696,2.71069 1.45654,0.98755 2.91307,2.05587 4.3696,3.19219 1.45654,1.13631 2.91307,2.341 4.3696,3.59977 1.45654,1.25876 2.91307,2.57191 4.3696,3.92398 1.45654,1.35207 2.91307,2.74327 4.3696,4.15734 1.45654,1.41406 2.91307,2.85111 4.3696,4.29442 1.45654,1.44331 2.91307,2.89292 4.3696,4.33206 1.45654,1.43915 2.91307,2.86774 4.3696,4.26939 1.45654,1.40165 2.91307,2.77616 4.3696,4.10786 1.45654,1.33169 2.91307,2.62029 4.3696,3.85118 1.45654,1.23091 2.91307,2.40375 4.3696,3.50536 1.45654,1.1016 2.91307,2.13153 4.3696,3.07833 1.45653,0.94681 2.91307,1.80997 4.3696,2.58004 1.45653,0.77008 2.91307,1.44649 4.3696,2.022 1.45653,0.57551 2.91307,1.04951 4.3696,1.41714 1.45653,0.36762 2.91307,0.62823 4.3696,0.77945 1.45653,0.15123 2.91307,0.19242 4.3696,0.12373 1.45653,-0.0686 2.91307,-0.24787 4.3696,-0.53486 1.45653,-0.287 2.91307,-0.68242 4.3696,-1.18107 1.45653,-0.49866 2.91307,-1.10116 4.3696,-1.79993 1.45653,-0.69878 2.91307,-1.4944 4.3696,-2.37711 1.45653,-0.88271 2.91307,-1.85303 4.3696,-2.89924 1.45653,-1.04622 2.91307,-2.16876 4.3696,-3.35425 1.45653,-1.18548 2.91307,-2.43426 4.3696,-3.73156 1.45653,-1.2973 2.91306,-2.64339 4.3696,-4.02248 1.45653,-1.37908 2.91306,-2.79132 4.3696,-4.22025 1.45653,-1.42892 2.91306,-2.87461 4.3696,-4.32028"
       style="fill:#ffffff;fill-rule:evenodd;stroke:#0000ff;stroke-width:1.41940844;stroke-linecap:butt;stroke-linejoin:miter;stroke-miterlimit:4;stroke-dasharray:none;stroke-opacity:1"
       inkscape:connector-curvature="0" />
    <g
       id="g4289"
       transform="translate(-3.8629031e-6,22.929933)">
      <path
         inkscape:connector-curvature="0"
         id="path3410"
         d="m 258.84991,625.52018 -70,0 0,-70"
         style="fill:none;fill-rule:evenodd;stroke:#000000;stroke-width:1px;stroke-linecap:butt;stroke-linejoin:miter;stroke-opacity:1;marker-start:url(#Arrow2Lstart);marker-end:url(#Arrow1Lend)" />
      <flowRoot
         transform="translate(139.65891,328.2218)"
         style="font-style:normal;font-weight:normal;line-height:0.01%;font-family:sans-serif;letter-spacing:0px;word-spacing:0px;fill:#000000;fill-opacity:1;stroke:none;stroke-width:1px;stroke-linecap:butt;stroke-linejoin:miter;stroke-opacity:1"
         id="flowRoot4570"
         xml:space="preserve"><flowRegion
           id="flowRegion4572"><rect
             y="285.5437"
             x="113.98721"
             height="51.812366"
             width="71.385925"
             id="rect4574" /></flowRegion><flowPara
           id="flowPara4576"
           style="font-size:40px;line-height:1.25">x</flowPara></flowRoot>      <flowRoot
         transform="translate(155.89075,164.48096)"
         style="font-style:normal;font-weight:normal;line-height:0.01%;font-family:sans-serif;letter-spacing:0px;word-spacing:0px;fill:#000000;fill-opacity:1;stroke:none;stroke-width:1px;stroke-linecap:butt;stroke-linejoin:miter;stroke-opacity:1"
         id="flowRoot4578"
         xml:space="preserve"><flowRegion
           id="flowRegion4580"><rect
             y="344.2644"
             x="32.238808"
             height="79.445625"
             width="80.597015"
             id="rect4582" /></flowRegion><flowPara
           id="flowPara4584"
           style="font-size:40px;line-height:1.25">z</flowPara></flowRoot>      <flowRoot
         transform="translate(-117.97461,164.41211)"
         style="font-style:normal;font-weight:normal;line-height:0.01%;font-family:sans-serif;letter-spacing:0px;word-spacing:0px;fill:#000000;fill-opacity:1;stroke:none;stroke-width:1px;stroke-linecap:butt;stroke-linejoin:miter;stroke-opacity:1"
         id="flowRoot4586"
         xml:space="preserve"><flowRegion
           id="flowRegion4588"><rect
             y="358.08102"
             x="227.97441"
             height="71.385925"
             width="118.59275"
             id="rect4590" /></flowRegion><flowPara
           id="flowPara4592"
           style="font-size:40px;line-height:1.25">y</flowPara></flowRoot>      <g
         transform="translate(-216,-104.99997)"
         id="g4262">
        <circle
           style="fill:none;stroke:#000000;stroke-width:3;stroke-miterlimit:4;stroke-dasharray:none;stroke-opacity:1"
           id="path4608"
           cx="366"
           cy="687.36212"
           r="15.964455" />
        <g
           id="g4258"
           transform="translate(0.88990852,0)">
          <path
             inkscape:connector-curvature="0"
             id="path4254"
             d="m 358,680.36215 14,14"
             style="fill:none;fill-rule:evenodd;stroke:#000000;stroke-width:1px;stroke-linecap:butt;stroke-linejoin:miter;stroke-opacity:1" />
          <path
             inkscape:connector-curvature="0"
             id="path4256"
             d="m 372,680.36215 -14,14"
             style="fill:none;fill-rule:evenodd;stroke:#000000;stroke-width:1px;stroke-linecap:butt;stroke-linejoin:miter;stroke-opacity:1" />
        </g>
      </g>
    </g>
    <path
       inkscape:connector-curvature="0"
       style="fill:#ffffff;fill-opacity:0;fill-rule:evenodd;stroke:#000000;stroke-width:1.41940844;stroke-linecap:butt;stroke-linejoin:miter;stroke-miterlimit:4;stroke-dasharray:none;stroke-opacity:1"
       d="m 15.622829,631.67348 c 1.456533,-1.2974 0.290849,0.95033 1.747382,-0.23528 m 0,0 c 1.456534,-1.1856 2.913067,-2.30787 4.3696,-3.35423 1.456533,-1.04637 2.913067,-2.01636 4.3696,-2.89925 1.456533,-0.88289 2.913066,-1.67814 4.369599,-2.37711 1.456534,-0.69896 2.913067,-1.30106 4.3696,-1.79993 1.456533,-0.49886 2.913067,-0.89386 4.3696,-1.18107 1.456533,-0.2872 2.913066,-0.46596 4.3696,-0.53487 1.456533,-0.0688 2.913066,-0.0272 4.369599,0.12374 1.456534,0.151 2.913067,0.41204 4.3696,0.77946 1.456533,0.36741 2.913067,0.84182 4.3696,1.41713 1.456533,0.57531 2.913066,1.25211 4.3696,2.022 1.456533,0.76989 2.913066,1.6334 4.369599,2.58004 1.456534,0.94663 2.913067,1.97687 4.3696,3.07833 1.456533,1.10147 2.913067,2.27457 4.3696,3.50535 1.456533,1.23079 2.913066,2.51959 4.3696,3.85119 1.456533,1.33161 2.913066,2.70626 4.369599,4.10785 1.456533,1.4016 2.913067,2.83027 4.3696,4.2694 1.456533,1.43912 2.913066,2.88873 4.3696,4.33206 1.456533,1.44332 2.913066,2.88031 4.369599,4.29442 1.456534,1.41412 2.913067,2.80519 4.369604,4.15734 1.45653,1.35215 2.91306,2.66511 4.3696,3.92398 1.45653,1.25888 2.91306,2.46332 4.3696,3.59977 1.45653,1.13645 2.91306,2.20448 4.3696,3.19219 1.45653,0.98771 2.91306,1.8946 4.3696,2.71069 1.45653,0.8161 2.91306,1.54084 4.36959,2.16643 1.45654,0.62558 2.91307,1.1514 4.3696,1.57199 1.45654,0.42059 2.91307,0.7353 4.3696,0.94115 1.45654,0.20585 2.91307,0.30218 4.3696,0.28853 1.45654,-0.0136 2.91307,-0.13795 4.3696,-0.37079 1.45654,-0.23283 2.91307,-0.57486 4.3696,-1.0215 1.45654,-0.44664 2.91307,-0.99849 4.3696,-1.64858 1.45654,-0.65009 2.91307,-1.39899 4.3696,-2.23747 1.45654,-0.83849 2.91307,-1.76709 4.3696,-2.77456 1.45654,-1.00746 2.91307,-2.09426 4.3696,-3.24738 1.45654,-1.15313 2.91307,-2.37295 4.3696,-3.64503 1.45654,-1.27208 7.58943,-7.54813 9.04596,-8.90969 l 0.24396,82.13329 m 536.91005,-78.20966 c -1.45654,1.37909 -2.91307,2.72518 -4.3696,4.02248 -1.45653,1.2973 -2.91307,2.54608 -4.3696,3.73156 -1.45653,1.18549 -2.91307,2.30803 -4.3696,3.35425 -1.45653,1.04621 -2.91307,2.01653 -4.3696,2.89924 -1.45653,0.88271 -2.91307,1.67833 -4.3696,2.37711 -1.45653,0.69877 -2.91307,1.30127 -4.3696,1.79993 -1.45653,0.49865 -2.91307,0.89407 -4.3696,1.18107 -1.45653,0.28699 -2.91307,0.46626 -4.3696,0.53486 -1.45653,0.0687 -2.91307,0.0275 -4.3696,-0.12373 -1.45653,-0.15122 -2.91307,-0.41183 -4.3696,-0.77945 -1.45653,-0.36763 -2.91307,-0.84163 -4.3696,-1.41714 -1.45653,-0.57551 -2.91307,-1.25192 -4.3696,-2.022 -1.45653,-0.77007 -2.91307,-1.63323 -4.3696,-2.58004 -1.45653,-0.9468 -2.91306,-1.97673 -4.3696,-3.07833 -1.45653,-1.10161 -2.91306,-2.27445 -4.3696,-3.50536 -1.45653,-1.23089 -2.91306,-2.51949 -4.3696,-3.85118 -1.45653,-1.3317 -2.91306,-2.70621 -4.3696,-4.10786 -1.45653,-1.40165 -2.91306,-2.83024 -4.3696,-4.26939 -1.45653,-1.43914 -2.91306,-2.88875 -4.3696,-4.33206 -1.45653,-1.44331 -2.91306,-2.88036 -4.3696,-4.29442 -1.45653,-1.41407 -2.91306,-2.80527 -4.3696,-4.15734 -1.45653,-1.35207 -2.91306,-2.66522 -4.3696,-3.92398 -1.45653,-1.25877 -2.91306,-2.46346 -4.3696,-3.59977 -1.45653,-1.13632 -2.91306,-2.20464 -4.3696,-3.19219 -1.45653,-0.98754 -2.91306,-1.89477 -4.3696,-2.71069 -1.45653,-0.81592 -2.91306,-1.54104 -4.36959,-2.16642 -1.45654,-0.62539 -2.91307,-1.15162 -4.3696,-1.572 -1.45654,-0.42037 -2.91307,-0.73552 -4.3696,-0.94115 -1.45654,-0.20563 -2.91307,-0.30243 -4.3696,-0.28853 -1.45654,0.0139 -2.91307,0.13773 -4.3696,0.37079 -1.45654,0.23305 -2.91307,0.57466 -4.3696,1.0215 -1.45654,0.44685 -2.91307,0.9983 -4.3696,1.64858 -1.45654,0.65028 -2.91307,1.39881 -4.3696,2.23747 -1.45654,0.83866 -2.91307,1.76693 -4.3696,2.77456 -1.45654,1.00763 -2.91307,2.09413 -4.3696,3.24738 -1.45654,1.15326 -2.91307,2.37285 -4.3696,3.64503 -1.45654,1.27218 -2.91307,2.59661 -4.3696,3.95826 -1.45654,1.36164 -2.91307,2.76024 -4.3696,4.17982 -1.45653,1.41958 -2.91307,2.85997 -4.3696,4.30461 -1.45653,1.44463 -2.91307,2.89347 -4.3696,4.32971 -1.45653,1.43624 -2.91307,2.85996 -4.3696,4.25455 -1.45653,1.39459 -2.91307,2.76021 -4.3696,4.08086 -1.45653,1.32065 -2.91307,2.59657 -4.3696,3.8127 -1.45653,1.21612 -2.91307,2.37279 -4.3696,3.45622 -1.45653,1.08344 -2.91307,2.09406 -4.3696,3.01973 -1.45653,0.92566 -2.91307,1.76685 -4.3696,2.5133 -1.45653,0.74645 -2.91307,1.39871 -4.3696,1.94868 -1.45653,0.54995 -2.91307,0.99819 -4.3696,1.33892 -1.45653,0.34072 -2.91307,0.57456 -4.3696,0.69817 -1.45653,0.1236 -2.91307,0.1376 -4.3696,0.0412 -1.45653,-0.0964 -2.91306,-0.3025 -4.3696,-0.61662 -1.45653,-0.31414 -2.91306,-0.73563 -4.3696,-1.26024 -1.45653,-0.5246 -2.91306,-1.1517 -4.3696,-1.87464 -1.45653,-0.72293 -2.91306,-1.54112 -4.3696,-2.44564 -1.45653,-0.90453 -2.91306,-1.89486 -4.3696,-2.96002 -1.45653,-1.06517 -2.91306,-2.2047 -4.3696,-3.40585 -1.45653,-1.20114 -2.91306,-2.4635 -4.3696,-3.77282 -1.45653,-1.3093 -2.91306,-2.66525 -4.3696,-4.0524 -1.45653,-1.38715 -2.91306,-2.80529 -4.3696,-4.23817 -1.45653,-1.43288 -2.91306,-2.88037 -4.3696,-4.32578 -1.45653,-1.44542 -2.91306,-2.88874 -4.3696,-4.31323 -1.45653,-1.42449 -2.91306,-2.83023 -4.3696,-4.2008 -1.45653,-1.37058 -2.91306,-2.70617 -4.36959,-3.99109 -1.45654,-1.28492 -2.91307,-2.51944 -4.3696,-3.68896 -1.45654,-1.16952 -2.91307,-2.27439 -4.3696,-3.30142 -1.45654,-1.02702 -2.91307,-1.97665 -4.3696,-2.83741 -1.45654,-0.86075 -2.91307,-1.63315 -4.3696,-2.30771 -1.45654,-0.67456 -2.91307,-1.25183 -4.3696,-1.72456 -1.45654,-0.47273 -2.91307,-0.84154 -4.3696,-1.10149 -1.45654,-0.25997 -2.91307,-0.41171 -4.3696,-0.45291 -1.45654,-0.0412 -2.91307,0.0276 -4.3696,0.20616 -1.45654,0.17857 -2.91307,0.46629 -4.3696,0.86046 -1.45654,0.39419 -2.91307,0.89418 -4.3696,1.49484 -1.45654,0.60066 -2.91307,1.30137 -4.3696,2.09459 -1.45654,0.79323 -2.91307,1.67842 -4.3696,2.64585 -1.45653,0.96743 -2.91307,2.0166 -4.3696,3.13583 -1.45653,1.11923 -2.91307,2.30809 -4.3696,3.5532 -1.45653,1.24511 -2.91307,2.54613 -4.3696,3.88829 -1.45653,1.34217 -2.91307,2.72521 -4.3696,4.13334 -1.45653,1.40815 -2.91307,2.84119 -4.3696,4.2827 -1.45653,1.44149 -2.91307,2.89136 -4.3696,4.33284 -1.45653,1.44148 -2.91307,2.8746 -4.3696,4.28268 -1.45653,1.40809 -2.91307,2.79126 -4.3696,4.13335 -1.45653,1.34208 -2.91307,2.64329 -4.3696,3.88829 -1.45653,1.245 -2.91307,2.43411 -4.3696,3.5532 -1.45653,1.1191 -2.91307,2.16856 -4.3696,3.13583 -1.45653,0.96727 -2.91306,1.8528 -4.3696,2.64585 -1.45653,0.79304 -2.91306,1.49414 -4.3696,2.09459 -1.45653,0.60046 -2.91306,1.10087 -4.3696,1.49483 -1.45653,0.39397 -2.91306,0.68212 -4.3696,0.86046 -1.45653,0.17837 -2.91306,0.24757 -4.3696,0.20617 -1.45653,-0.0414 -2.91306,-0.19273 -4.3696,-0.4529 -1.45653,-0.26019 -2.91306,-0.62856 -4.3696,-1.1015 -1.45653,-0.47293 -2.91306,-1.04981 -4.3696,-1.72456 -1.45653,-0.67475 -2.91306,-1.44678 -4.3696,-2.30771 -1.45653,-0.86093 -2.91306,-1.81023 -4.3696,-2.83742 -1.45653,-1.02718 -2.91306,-2.13176 -4.3696,-3.3014 -1.45653,-1.16966 -2.91306,-2.40395 -4.3696,-3.68897 -1.45653,-1.28503 -2.91306,-2.62045 -4.36959,-3.99109 -1.45654,-1.37064 -2.91307,-2.77627 -4.3696,-4.2008 -1.45654,-1.42452 -2.91307,-2.86781 -4.3696,-4.31323 -1.45654,-1.44542 -2.91307,-2.89293 -4.3696,-4.32578 -1.45654,-1.43284 -2.91307,-2.85107 -4.3696,-4.23817 -1.45654,-1.38708 -2.91307,-2.74319 -4.3696,-4.0524 -1.45654,-1.30922 -2.91307,-2.57179 -4.3696,-3.77282 -1.45654,-1.20102 -2.91307,-2.34083 -4.3696,-3.40585 -1.45654,-1.06501 -2.91307,-2.05566 -4.3696,-2.96002 -1.45654,-0.90435 -2.91307,-1.7229 -4.3696,-2.44565 -1.45654,-0.72274 -2.91307,-1.35023 -4.3696,-1.87464 -1.45654,-0.5244 -2.91307,-0.9463 -4.3696,-1.26023 -1.45654,-0.31391 -2.91307,-0.52042 -4.3696,-0.61662 -1.45653,-0.0962 -2.91307,-0.0826 -4.3696,0.0412 -1.45653,0.12382 -2.91307,0.35722 -4.3696,0.69817 -1.45653,0.34093 -2.91307,0.78876 -4.3696,1.33892 -1.45653,0.55015 -2.91307,1.20203 -4.3696,1.94867 -1.45653,0.74664 -7.97947,8.34266 -9.436,9.26849 l 0.0785,102.04171"
       title="sin(x)"
       id="path4315"
       sodipodi:nodetypes="cccsssssccssssssssssssssssssscsssssssccsscsscssssssssssssssssscscssssssssssssssssscsccsssssssssssssssssccsscssssssssssssssssscsssssssssssssssssssscsssssssccc" />
    <path
       style="fill:none;fill-rule:evenodd;stroke:#000000;stroke-width:2;stroke-linecap:butt;stroke-linejoin:miter;stroke-opacity:0.3525641;stroke-miterlimit:4;stroke-dasharray:6, 2;stroke-dashoffset:0"
       d="m 2.2929936,648.79527 718.8535064,0"
       id="path4319"
       inkscape:connector-curvature="0" />
    <flowRoot
       xml:space="preserve"
       id="flowRoot4321"
       style="font-style:normal;font-weight:normal;line-height:0.01%;font-family:sans-serif;letter-spacing:0px;word-spacing:0px;fill:#000000;fill-opacity:1;stroke:none;stroke-width:1px;stroke-linecap:butt;stroke-linejoin:miter;stroke-opacity:1"
       transform="translate(0,512.36215)"><flowRegion
         id="flowRegion4323"><rect
           id="rect4325"
           width="97.267311"
           height="43.566875"
           x="644.51611"
           y="92.866241" /></flowRegion><flowPara
         id="flowPara4327"
         style="font-size:40px;line-height:1.25">MWm</flowPara></flowRoot>    <path
       style="opacity:1;fill:#ffffff;fill-opacity:0;stroke:#000000;stroke-width:2.06196761;stroke-miterlimit:4;stroke-dasharray:none;stroke-dashoffset:0;stroke-opacity:1"
       id="path4614"
       sodipodi:type="arc"
       sodipodi:cx="360.58316"
       sodipodi:cy="721.20056"
       sodipodi:rx="359.13336"
       sodipodi:ry="321.42444"
       sodipodi:start="6.0772365"
       sodipodi:end="3.4260813"
       d="M 712.1271,655.47055 A 359.13336,321.42444 0 0 1 553.19281,992.48795 359.13336,321.42444 0 0 1 144.78518,978.12643 359.13336,321.42444 0 0 1 15.885057,630.98743"
       sodipodi:open="true" />
    <path
       style="opacity:1;fill:#ffffff;fill-opacity:0;stroke:#000000;stroke-width:2;stroke-miterlimit:4;stroke-dasharray:none;stroke-dashoffset:0;stroke-opacity:1"
       id="path4625"
       sodipodi:type="arc"
       sodipodi:cx="188.12903"
       sodipodi:cy="782.36212"
       sodipodi:rx="49.724556"
       sodipodi:ry="49.724556"
       sodipodi:start="4.9480084"
       sodipodi:end="4.4540803"
       d="m 199.73699,734.01146 a 49.724556,49.724556 0 0 1 37.80428,53.91496 49.724556,49.724556 0 0 1 -48.84815,44.15706 49.724556,49.724556 0 0 1 -49.83738,-43.03746 49.724556,49.724556 0 0 1 36.57136,-54.75876"
       sodipodi:open="true" />
    <path
       style="fill:none;fill-rule:evenodd;stroke:#000000;stroke-width:1px;stroke-linecap:butt;stroke-linejoin:miter;stroke-opacity:1;marker-end:url(#marker4484)"
       d="m 154.77707,950.32393 -38.98089,43.56688"
       id="path4220"
       inkscape:path-effect="#path-effect4222"
       inkscape:original-d="m 154.77707,950.32393 -38.98089,43.56688"
       inkscape:connector-curvature="0" />
    <flowRoot
       xml:space="preserve"
       id="flowRoot4487"
       style="font-style:normal;font-weight:normal;line-height:0.01%;font-family:sans-serif;letter-spacing:0px;word-spacing:0px;fill:#000000;fill-opacity:1;stroke:none;stroke-width:1px;stroke-linecap:butt;stroke-linejoin:miter;stroke-opacity:1"
       transform="translate(10.076433,517.5596)"><flowRegion
         id="flowRegion4489"><rect
           id="rect4491"
           width="188.02548"
           height="45.606403"
           x="150.19109"
           y="409.55283" /></flowRegion><flowPara
         id="flowPara4493"
         style="font-size:40px;line-height:1.25">r → ∞</flowPara><flowPara
         id="flowPara4495"
         style="font-size:40px;line-height:1.25"> </flowPara></flowRoot>    <path
       style="fill:none;fill-rule:evenodd;stroke:#000000;stroke-width:1px;stroke-linecap:butt;stroke-linejoin:miter;stroke-opacity:1;marker-end:url(#marker4571)"
       d="M 362,636.18381 324.16561,586.88445"
       id="path4307"
       inkscape:path-effect="#path-effect4309"
       inkscape:original-d="M 362,636.18381 324.16561,586.88445"
       inkscape:connector-curvature="0" />
    <g
       id="g6552">
      <text
         id="text6542"
         y="583.95453"
         x="294.33121"
         style="font-style:normal;font-weight:normal;line-height:0%;font-family:sans-serif;letter-spacing:0px;word-spacing:0px;fill:#000000;fill-opacity:1;stroke:none;stroke-width:1px;stroke-linecap:butt;stroke-linejoin:miter;stroke-opacity:1"
         xml:space="preserve"><tspan
           y="583.95453"
           x="294.33121"
           id="tspan6544"
           sodipodi:role="line"
           style="font-size:40px;line-height:1.25">n</tspan></text>
      <text
         id="text6546"
         y="577.95453"
         x="290.33121"
         style="font-style:normal;font-weight:normal;line-height:0%;font-family:sans-serif;letter-spacing:0px;word-spacing:0px;fill:#000000;fill-opacity:1;stroke:none;stroke-width:1px;stroke-linecap:butt;stroke-linejoin:miter;stroke-opacity:1"
         xml:space="preserve"><tspan
           y="577.95453"
           x="290.33121"
           id="tspan6548"
           sodipodi:role="line"
           style="font-size:40px;line-height:1.25">^</tspan><tspan
           id="tspan6550"
           y="627.95453"
           x="290.33121"
           sodipodi:role="line"
           style="font-size:40px;line-height:1.25"> </tspan></text>
    </g>
  </g>
</svg>
